PathFileType	4	(X/Y/Z)	C:\My Captures\DataSMARTClinic\0004~001 ID\0004~aa~STRATO_01\Standing_STRATO_ID_01.trc
DataRate	CameraRate	NumFrames	NumMarkers	Units	OrigDataRate	OrigDataStartFrame	OrigNumFrames
250.00	250.00	15	22	mm	250.00	1	2711
Frame#	Time	r.should			l.should			c7			r.asis			l.asis			sacrum			r.bar1			l.bar1			r.knee1			l.knee1			r.bar2			r.mall			l.bar2			l.mall			r.met			r.heel			l.heel			l.met			r.mallm			l.mallm			r.kneem			l.kneem			
		X1	Y1	Z1	X2	Y2	Z2	X3	Y3	Z3	X4	Y4	Z4	X5	Y5	Z5	X6	Y6	Z6	X7	Y7	Z7	X8	Y8	Z8	X9	Y9	Z9	X10	Y10	Z10	X11	Y11	Z11	X12	Y12	Z12	X13	Y13	Z13	X14	Y14	Z14	X15	Y15	Z15	X16	Y16	Z16	X17	Y17	Z17	X18	Y18	Z18	X19	Y19	Z19	X20	Y20	Z20	X21	Y21	Z21	X22	Y22	Z22	

0	0.000000	882.837117	1284.402370	339.516938	843.781948	1281.980634	35.221536	774.824440	1346.208692	188.331366	934.164226	873.334527	345.494390	953.270495	874.024510	76.391123	739.765108	900.248706	194.221526	861.169934	785.404623	388.053656	894.252539	773.748696	16.527725	838.268697	438.315719	355.982900	848.425508	434.632778	37.600376	818.922877	377.852589	360.836178	810.081422	79.219021	332.440794	840.414762	367.470473	32.075953	818.688929	76.155953	49.076140	933.850527	43.800678	313.323706	750.160873	43.701399	291.742444	751.416087	42.618554	83.423980	944.933236	41.250706	83.275966	812.073469	76.021083	252.538979	822.947323	81.898987	125.908986	824.218273	410.575330	228.759378	838.930190	406.169444	164.105415	
1	0.004000	882.825255	1284.419060	339.535743	843.758941	1282.004476	35.233878	774.808705	1346.204996	188.362658	934.119821	873.348534	345.484138	953.222990	874.033570	76.414019	739.692390	900.256217	194.229543	861.123979	785.405517	388.064384	894.170165	773.732066	16.510051	838.273168	438.320160	355.989099	848.407030	434.632897	37.594236	818.893790	377.853245	360.839844	810.070634	79.212435	332.449198	840.395272	367.461026	32.046139	818.693280	76.165169	49.072616	933.858633	43.803919	313.313812	750.169516	43.694407	291.750371	748.456836	43.267399	81.702620	944.946170	41.252568	83.263315	812.068820	76.026917	252.527118	822.951913	81.897043	125.906333	824.185014	410.572410	228.764325	838.941455	406.189561	164.106846	
2	0.008000	882.803082	1284.437180	339.542359	843.731463	1282.022595	35.244163	774.800837	1346.203327	188.371718	934.090674	873.348951	345.488757	953.215480	874.050319	76.427795	739.687443	900.250435	194.238365	861.083984	785.398483	388.048410	894.109845	773.732662	16.483851	838.272214	438.331068	355.986863	848.406494	434.645176	37.597954	818.879545	377.853692	360.844433	810.064673	79.218559	332.443655	840.391219	367.460489	32.048415	818.708062	76.181769	49.069397	933.864594	43.804165	313.303947	750.146210	43.696292	291.750699	747.704327	43.431506	81.264541	944.951653	41.259754	83.262354	812.058806	76.027252	252.519727	822.960019	81.886180	125.886664	824.159741	410.574853	228.779465	838.929355	406.196922	164.102390	
3	0.012000	882.789850	1284.447908	339.555800	843.703032	1282.038927	35.246857	774.767756	1346.192837	188.405946	934.046268	873.355865	345.493138	953.211069	874.070585	76.440349	739.665270	900.239468	194.240823	861.061037	785.377860	388.031900	894.051731	773.741484	16.482951	838.266432	438.333035	355.987132	848.409295	434.644490	37.608050	818.863690	377.859235	360.853761	810.070038	79.228319	332.442105	840.369880	367.452621	32.053538	818.697035	76.188944	49.065344	933.850586	43.802079	313.293785	750.207245	43.642670	291.749358	747.502565	43.466382	81.126362	944.936633	41.254509	83.262727	812.049866	76.030672	252.525479	822.969556	81.887022	125.882387	824.141383	410.569400	228.789821	838.917077	406.198442	164.093062	
4	0.016000	882.777035	1284.464121	339.569509	843.660712	1282.056451	35.255890	774.765491	1346.200347	188.426465	933.995426	873.352528	345.481575	953.206122	874.091029	76.451361	739.632189	900.241494	194.243118	861.071110	785.347104	388.048232	894.018590	773.750544	16.485283	838.252544	438.343227	355.995923	848.403692	434.645355	37.615865	818.848550	377.855659	360.859394	810.060501	79.224803	332.445771	840.351105	367.448688	32.047227	818.694830	76.204278	49.068470	933.843553	43.805119	313.296229	750.189006	43.638516	291.761398	747.461200	43.465570	81.084073	944.922686	41.260984	83.258480	812.056780	76.041758	252.532214	822.970390	81.895620	125.883639	824.136555	410.566717	228.795260	838.900387	406.188607	164.082825	
5	0.020000	882.758617	1284.483671	339.588434	843.626738	1282.075047	35.263337	774.780452	1346.204400	188.432366	933.976769	873.368502	345.504582	953.170955	874.096811	76.471932	739.616692	900.242031	194.263458	861.048341	785.338879	388.049155	894.016564	773.760319	16.469544	838.215351	438.350022	356.000930	848.399639	434.645921	37.624430	818.831146	377.857417	360.865653	810.052395	79.226188	332.447320	840.371907	367.470652	32.063138	818.688214	76.219454	49.067628	933.849931	43.811329	313.302010	750.192165	43.634124	291.755289	748.453617	43.229260	81.686392	944.927096	41.268080	83.263539	812.058866	76.050855	252.535343	822.964549	81.895344	125.874370	824.125051	410.573423	228.803188	838.870287	406.197518	164.087087	
6	0.024000	882.752061	1284.502625	339.610159	843.612015	1282.104492	35.276674	774.761200	1346.211672	188.452005	933.959961	873.376966	345.530152	953.138471	874.102712	76.489687	739.597261	900.252581	194.272533	861.015081	785.315394	388.067514	894.024312	773.767769	16.464774	838.234842	438.349962	356.013983	848.386943	434.641808	37.633520	818.811953	377.869934	360.868990	810.059667	79.239197	332.457721	840.377688	367.464244	32.063507	818.689942	76.230228	49.059615	933.855116	43.822434	313.305080	750.231147	43.604232	291.757792	749.675751	42.959724	82.422622	944.936335	41.279644	83.264261	812.054574	76.061293	252.543122	822.971642	81.897244	125.873372	824.106395	410.562843	228.817761	838.848948	406.197160	164.094433	
7	0.028000	882.739305	1284.511805	339.633822	843.586445	1282.125831	35.293095	774.731994	1346.223116	188.483179	933.927536	873.380423	345.534742	953.115702	874.116898	76.501735	739.569902	900.266707	194.291487	860.971153	785.326600	388.081282	894.021213	773.778141	16.480960	838.221848	438.350648	356.025487	848.376453	434.634924	37.640333	818.808913	377.880692	360.885292	810.058534	79.243794	332.468987	840.371609	367.458522	32.062687	818.683624	76.240696	49.067371	933.857799	43.825809	313.295573	750.247717	43.605916	291.760653	747.995853	43.315608	81.460610	944.933534	41.282535	83.267078	812.047064	76.060183	252.554655	822.986543	81.912823	125.878900	824.085474	410.550296	228.823915	838.833690	406.195670	164.095938	
8	0.032000	882.712841	1284.521937	339.660406	843.558669	1282.137394	35.298355	774.716616	1346.231103	188.506991	933.894038	873.386264	345.537394	953.085244	874.126256	76.514564	739.562452	900.270641	194.296211	860.907555	785.371900	388.082683	893.983603	773.785889	16.484154	838.178396	438.345432	356.032550	848.380566	434.651166	37.642419	818.789363	377.874702	360.900849	810.043156	79.248242	332.485110	840.361953	367.475241	32.065034	818.677187	76.256678	49.064171	933.852315	43.834005	313.301831	750.225902	43.616455	291.782647	747.588158	43.424219	81.193805	944.929957	41.285511	83.269089	812.045455	76.061562	252.553046	823.002875	81.923828	125.878811	824.060559	410.560429	228.829205	838.800788	406.211048	164.105117	
9	0.036000	882.684827	1284.536600	339.670807	843.533039	1282.157898	35.309002	774.713397	1346.247435	188.519701	933.871448	873.391211	345.562339	953.064203	874.136269	76.524414	739.531755	900.286317	194.296971	860.859752	785.387158	388.096690	893.962383	773.786783	16.490402	838.147521	438.358486	356.042445	848.372459	434.648186	37.641160	818.766117	377.883404	360.910386	810.029507	79.248451	332.487017	840.368509	367.471963	32.061644	818.658948	76.266155	49.063019	933.842540	43.836225	313.305080	750.221610	43.643951	291.794866	747.495413	43.475211	81.106395	944.923997	41.294504	83.270676	812.038243	76.076932	252.555043	823.011220	81.934325	125.875428	824.044764	410.560220	228.841037	838.779092	406.227171	164.100170	
10	0.040000	882.663131	1284.547091	339.684576	843.513668	1282.176852	35.319295	774.697721	1346.269608	188.531116	933.836579	873.393178	345.569223	953.013599	874.132216	76.537281	739.483356	900.315762	194.291353	860.827327	785.382926	388.089657	894.013286	773.806930	16.501933	838.120997	438.363433	356.035978	848.365843	434.655696	37.637450	818.754077	377.883315	360.914171	810.042500	79.248004	332.488298	840.349138	367.463171	32.049656	818.648934	76.262377	49.062472	933.825254	43.835096	313.306630	750.229239	43.611724	291.785806	748.504639	43.227538	81.668854	944.917560	41.291382	83.268031	812.027752	76.069981	252.560109	823.007464	81.937313	125.872195	824.036717	410.559505	228.850976	838.758111	406.218112	164.084822	
11	0.044000	882.642686	1284.556389	339.698076	843.500912	1282.193780	35.319842	774.681389	1346.271515	188.539594	933.804035	873.385906	345.558107	952.973962	874.129295	76.561660	739.454031	900.324941	194.284216	860.812664	785.389066	388.078749	893.975377	773.808897	16.481912	838.104606	438.361824	356.052488	848.362803	434.667110	37.632786	818.733692	377.876639	360.915184	810.042024	79.258814	332.495987	840.325952	367.455840	32.047663	818.658113	76.265357	49.057767	933.826149	43.838549	313.308299	750.219047	43.610081	291.776985	750.715375	42.752136	82.972683	944.911659	41.291680	83.258882	811.622560	75.957552	252.240717	823.012471	81.933431	125.868604	824.013889	410.562754	228.847027	838.736653	406.211764	164.085612	
12	0.048000	882.626295	1284.558535	339.711249	843.487859	1282.208443	35.328504	774.635255	1346.278429	188.567087	933.745980	873.364925	345.534116	952.949047	874.130964	76.579355	739.424169	900.331855	194.289863	860.798955	785.383642	388.070703	893.946528	773.822725	16.458794	838.076293	438.360095	356.053144	848.338783	434.661925	37.638575	818.724513	377.867639	360.919923	810.015738	79.250351	332.492381	840.323389	367.449522	32.042917	818.656087	76.259553	49.054660	933.819413	43.826032	313.305020	750.198126	43.647807	291.783631	750.260234	42.849474	82.737789	944.910407	41.288070	83.246589	811.143041	75.816527	251.847923	823.017359	81.936955	125.859827	824.001491	410.565853	228.853136	838.691711	406.205833	164.078608	
13	0.052000	882.622242	1284.562707	339.729548	843.476832	1282.215595	35.337422	774.622262	1346.269965	188.585475	933.703065	873.347044	345.534921	952.919185	874.121249	76.594010	739.388824	900.342107	194.297865	860.756278	785.381973	388.077199	893.902063	773.840666	16.472220	838.050485	438.344955	356.041849	848.321021	434.663624	37.630010	818.712175	377.858579	360.915989	810.017407	79.230577	332.487196	840.303421	367.453635	32.035496	818.650126	76.255441	49.048726	933.815658	43.814749	313.305557	750.192225	43.636903	291.791439	748.148799	43.308776	81.516907	944.904566	41.280031	83.237931	811.794758	76.000720	252.383709	823.020160	81.937082	125.853062	823.976457	410.561711	228.855669	838.661253	406.195283	164.074287	
14	0.056000	882.611334	1284.567833	339.747369	843.481004	1282.226801	35.349742	774.640799	1346.267223	188.585624	933.658004	873.339176	345.533341	952.895224	874.112904	76.604173	739.364862	900.357068	194.302469	860.690475	785.418093	388.045371	893.878341	773.846388	16.462944	838.062406	438.339442	356.049359	848.286211	434.652865	37.631150	818.701267	377.862662	360.922396	810.027778	79.224519	332.485616	840.278268	367.452800	32.042623	818.644762	76.248050	49.053188	933.810771	43.811016	313.308060	750.164509	43.659959	291.776896	748.609304	43.201976	81.760064	944.909096	41.282874	83.241686	811.948180	76.049723	252.516627	823.025346	81.924550	125.838459	823.966980	410.566658	228.855729	838.653088	406.184018	164.071932	
